# xmcd
#
# Track frame offsets:
#	150
#	22380
#	41211
#	65783
#	85117
#	106722
#	126007
#	145768
#	162143
#	178106
#	199772
#	216946
#	239810
#
# Disc length: 3524 seconds
#
# Revision: 0
# Processed by: cddbd v1.4PL0 Copyright (c) Steve Scherf et al.
# Submitted via: EasyCDDAExtractor 4.6.9.1
#
DISCID=c30dc20d
DTITLE=BOBO - the NatuRaL
DYEAR=2002
DGENRE=
TTITLE0=REMEMBER ME
TTITLE1=ALONE
TTITLE2=이별에게
TTITLE3=마지막 겨울
TTITLE4=내게로
TTITLE5=예감했던 이별
TTITLE6=몰랐었죠
TTITLE7=이별과의 이별
TTITLE8=BYE BYE
TTITLE9=가을비 우산속
TTITLE10=청혼
TTITLE11=THE CHRISTMAS SONG
TTITLE12=이별에게 WHTH NYLON GUITAR (INST)
EXTD=
EXTT0=
EXTT1=
EXTT2=
EXTT3=
EXTT4=
EXTT5=
EXTT6=
EXTT7=
EXTT8=
EXTT9=
EXTT10=
EXTT11=
EXTT12=
PLAYORDER=
